<svg xmlns="http://www.w3.org/2000/svg" viewBox="0 0 800 300">
<rect width="800" height="300" fill="#1e1e2e" rx="8"/>
<text x="400.0" y="24" text-anchor="middle" fill="#cdd6f4" font-size="14" font-weight="bold">各平台行业文章产出量趋势</text>
<line x1="70" y1="240.0" x2="770" y2="240.0" stroke="#333355" stroke-width="1"/>
<text x="62" y="244.0" text-anchor="end" fill="#cdd6f4" font-size="11">0</text>
<line x1="70" y1="200.0" x2="770" y2="200.0" stroke="#333355" stroke-width="1"/>
<text x="62" y="204.0" text-anchor="end" fill="#cdd6f4" font-size="11">118</text>
<line x1="70" y1="160.0" x2="770" y2="160.0" stroke="#333355" stroke-width="1"/>
<text x="62" y="164.0" text-anchor="end" fill="#cdd6f4" font-size="11">235</text>
<line x1="70" y1="120.0" x2="770" y2="120.0" stroke="#333355" stroke-width="1"/>
<text x="62" y="124.0" text-anchor="end" fill="#cdd6f4" font-size="11">353</text>
<line x1="70" y1="80.0" x2="770" y2="80.0" stroke="#333355" stroke-width="1"/>
<text x="62" y="84.0" text-anchor="end" fill="#cdd6f4" font-size="11">470</text>
<line x1="70" y1="40.0" x2="770" y2="40.0" stroke="#333355" stroke-width="1"/>
<text x="62" y="44.0" text-anchor="end" fill="#cdd6f4" font-size="11">588</text>
<text x="15" y="140.0" text-anchor="middle" fill="#cdd6f4" font-size="11" transform="rotate(-90, 15, 140.0)">文章数</text>
<path d="M 70.0,239.6 L 303.3,239.3 L 536.7,240.0 L 770.0,226.7" fill="none" stroke="#3b82f6" stroke-width="2.5"/>
<circle cx="70.0" cy="239.6" r="3.5" fill="#3b82f6"/>
<circle cx="303.3" cy="239.3" r="3.5" fill="#3b82f6"/>
<circle cx="536.7" cy="240.0" r="3.5" fill="#3b82f6"/>
<circle cx="770.0" cy="226.7" r="3.5" fill="#3b82f6"/>
<text x="775.0" y="218.69162695711367" fill="#3b82f6" font-size="10">40</text>
<path d="M 70.0,226.7 L 303.3,225.0 L 536.7,238.9 L 770.0,58.2" fill="none" stroke="#ef4444" stroke-width="2.5"/>
<circle cx="70.0" cy="226.7" r="3.5" fill="#ef4444"/>
<circle cx="303.3" cy="225.0" r="3.5" fill="#ef4444"/>
<circle cx="536.7" cy="238.9" r="3.5" fill="#ef4444"/>
<circle cx="770.0" cy="58.2" r="3.5" fill="#ef4444"/>
<text x="775.0" y="50.209666439754955" fill="#ef4444" font-size="10">535</text>
<path d="M 70.0,238.3 L 303.3,237.6 L 536.7,240.0 L 770.0,222.9" fill="none" stroke="#10b981" stroke-width="2.5"/>
<circle cx="70.0" cy="238.3" r="3.5" fill="#10b981"/>
<circle cx="303.3" cy="237.6" r="3.5" fill="#10b981"/>
<circle cx="536.7" cy="240.0" r="3.5" fill="#10b981"/>
<circle cx="770.0" cy="222.9" r="3.5" fill="#10b981"/>
<text x="775.0" y="214.94758339006125" fill="#10b981" font-size="10">51</text>
<text x="70.0" y="258" text-anchor="middle" fill="#cdd6f4" font-size="10">W07</text>
<text x="303.3333333333333" y="258" text-anchor="middle" fill="#cdd6f4" font-size="10">W08</text>
<text x="536.6666666666666" y="258" text-anchor="middle" fill="#cdd6f4" font-size="10">W09</text>
<text x="770.0" y="258" text-anchor="middle" fill="#cdd6f4" font-size="10">W10</text>
<rect x="70" y="280" width="12" height="12" rx="2" fill="#3b82f6"/>
<text x="86" y="290" fill="#cdd6f4" font-size="10">B站</text>
<rect x="180" y="280" width="12" height="12" rx="2" fill="#ef4444"/>
<text x="196" y="290" fill="#cdd6f4" font-size="10">微信公众号</text>
<rect x="290" y="280" width="12" height="12" rx="2" fill="#10b981"/>
<text x="306" y="290" fill="#cdd6f4" font-size="10">播客</text>
</svg>