<svg xmlns="http://www.w3.org/2000/svg" viewBox="0 0 800 300">
<rect width="800" height="300" fill="#1e1e2e" rx="8"/>
<text x="400.0" y="24" text-anchor="middle" fill="#cdd6f4" font-size="14" font-weight="bold">各平台行业文章产出量趋势</text>
<line x1="70" y1="240.0" x2="770" y2="240.0" stroke="#333355" stroke-width="1"/>
<text x="62" y="244.0" text-anchor="end" fill="#cdd6f4" font-size="11">0</text>
<line x1="70" y1="200.0" x2="770" y2="200.0" stroke="#333355" stroke-width="1"/>
<text x="62" y="204.0" text-anchor="end" fill="#cdd6f4" font-size="11">10</text>
<line x1="70" y1="160.0" x2="770" y2="160.0" stroke="#333355" stroke-width="1"/>
<text x="62" y="164.0" text-anchor="end" fill="#cdd6f4" font-size="11">20</text>
<line x1="70" y1="120.0" x2="770" y2="120.0" stroke="#333355" stroke-width="1"/>
<text x="62" y="124.0" text-anchor="end" fill="#cdd6f4" font-size="11">30</text>
<line x1="70" y1="80.0" x2="770" y2="80.0" stroke="#333355" stroke-width="1"/>
<text x="62" y="84.0" text-anchor="end" fill="#cdd6f4" font-size="11">39</text>
<line x1="70" y1="40.0" x2="770" y2="40.0" stroke="#333355" stroke-width="1"/>
<text x="62" y="44.0" text-anchor="end" fill="#cdd6f4" font-size="11">49</text>
<text x="15" y="140.0" text-anchor="middle" fill="#cdd6f4" font-size="11" transform="rotate(-90, 15, 140.0)">文章数</text>
<path d="M 70.0,235.5 L 420.0,231.4 L 770.0,239.6" fill="none" stroke="#3b82f6" stroke-width="2.5"/>
<circle cx="70.0" cy="235.5" r="3.5" fill="#3b82f6"/>
<circle cx="420.0" cy="231.4" r="3.5" fill="#3b82f6"/>
<circle cx="770.0" cy="239.6" r="3.5" fill="#3b82f6"/>
<text x="775.0" y="231.58847736625515" fill="#3b82f6" font-size="10">1</text>
<path d="M 70.0,79.1 L 420.0,58.5 L 770.0,227.2" fill="none" stroke="#ef4444" stroke-width="2.5"/>
<circle cx="70.0" cy="79.1" r="3.5" fill="#ef4444"/>
<circle cx="420.0" cy="58.5" r="3.5" fill="#ef4444"/>
<circle cx="770.0" cy="227.2" r="3.5" fill="#ef4444"/>
<text x="775.0" y="219.24279835390948" fill="#ef4444" font-size="10">4</text>
<path d="M 70.0,219.0 L 420.0,210.8 L 770.0,239.6" fill="none" stroke="#10b981" stroke-width="2.5"/>
<circle cx="70.0" cy="219.0" r="3.5" fill="#10b981"/>
<circle cx="420.0" cy="210.8" r="3.5" fill="#10b981"/>
<circle cx="770.0" cy="239.6" r="3.5" fill="#10b981"/>
<text x="775.0" y="231.58847736625515" fill="#10b981" font-size="10">1</text>
<text x="70.0" y="258" text-anchor="middle" fill="#cdd6f4" font-size="10">W07</text>
<text x="420.0" y="258" text-anchor="middle" fill="#cdd6f4" font-size="10">W08</text>
<text x="770.0" y="258" text-anchor="middle" fill="#cdd6f4" font-size="10">W09</text>
<rect x="70" y="280" width="12" height="12" rx="2" fill="#3b82f6"/>
<text x="86" y="290" fill="#cdd6f4" font-size="10">B站</text>
<rect x="180" y="280" width="12" height="12" rx="2" fill="#ef4444"/>
<text x="196" y="290" fill="#cdd6f4" font-size="10">微信公众号</text>
<rect x="290" y="280" width="12" height="12" rx="2" fill="#10b981"/>
<text x="306" y="290" fill="#cdd6f4" font-size="10">播客</text>
</svg>