<svg xmlns="http://www.w3.org/2000/svg" viewBox="0 0 800 300">
<rect width="800" height="300" fill="#1e1e2e" rx="8"/>
<text x="400.0" y="24" text-anchor="middle" fill="#cdd6f4" font-size="14" font-weight="bold">国内短剧APP评论数趋势</text>
<line x1="70" y1="240.0" x2="770" y2="240.0" stroke="#333355" stroke-width="1"/>
<text x="62" y="244.0" text-anchor="end" fill="#cdd6f4" font-size="11">614K</text>
<line x1="70" y1="200.0" x2="770" y2="200.0" stroke="#333355" stroke-width="1"/>
<text x="62" y="204.0" text-anchor="end" fill="#cdd6f4" font-size="11">1.2M</text>
<line x1="70" y1="160.0" x2="770" y2="160.0" stroke="#333355" stroke-width="1"/>
<text x="62" y="164.0" text-anchor="end" fill="#cdd6f4" font-size="11">1.7M</text>
<line x1="70" y1="120.0" x2="770" y2="120.0" stroke="#333355" stroke-width="1"/>
<text x="62" y="124.0" text-anchor="end" fill="#cdd6f4" font-size="11">2.2M</text>
<line x1="70" y1="80.0" x2="770" y2="80.0" stroke="#333355" stroke-width="1"/>
<text x="62" y="84.0" text-anchor="end" fill="#cdd6f4" font-size="11">2.8M</text>
<line x1="70" y1="40.0" x2="770" y2="40.0" stroke="#333355" stroke-width="1"/>
<text x="62" y="44.0" text-anchor="end" fill="#cdd6f4" font-size="11">3.3M</text>
<text x="15" y="140.0" text-anchor="middle" fill="#cdd6f4" font-size="11" transform="rotate(-90, 15, 140.0)">评论数</text>
<path d="M 70.0,74.6 L 303.3,67.2 L 536.7,62.3 L 770.0,62.3" fill="none" stroke="#ef4444" stroke-width="2.5"/>
<circle cx="70.0" cy="74.6" r="3.5" fill="#ef4444"/>
<circle cx="303.3" cy="67.2" r="3.5" fill="#ef4444"/>
<circle cx="536.7" cy="62.3" r="3.5" fill="#ef4444"/>
<circle cx="770.0" cy="62.3" r="3.5" fill="#ef4444"/>
<text x="775.0" y="54.30698658904157" fill="#ef4444" font-size="10">3.0M</text>
<text x="70.0" y="258" text-anchor="middle" fill="#cdd6f4" font-size="10">W07</text>
<text x="303.3333333333333" y="258" text-anchor="middle" fill="#cdd6f4" font-size="10">W08</text>
<text x="536.6666666666666" y="258" text-anchor="middle" fill="#cdd6f4" font-size="10">W09</text>
<text x="770.0" y="258" text-anchor="middle" fill="#cdd6f4" font-size="10">W10</text>
<rect x="70" y="280" width="12" height="12" rx="2" fill="#3b82f6"/>
<text x="86" y="290" fill="#cdd6f4" font-size="10">河马剧场</text>
<rect x="180" y="280" width="12" height="12" rx="2" fill="#ef4444"/>
<text x="196" y="290" fill="#cdd6f4" font-size="10">红果短剧</text>
</svg>