<svg xmlns="http://www.w3.org/2000/svg" viewBox="0 0 800 300">
<rect width="800" height="300" fill="#1e1e2e" rx="8"/>
<text x="400.0" y="24" text-anchor="middle" fill="#cdd6f4" font-size="14" font-weight="bold">出海短剧APP免费榜排名走势</text>
<line x1="70" y1="40.0" x2="770" y2="40.0" stroke="#333355" stroke-width="1"/>
<text x="62" y="44.0" text-anchor="end" fill="#cdd6f4" font-size="11">#1</text>
<line x1="70" y1="134.73684210526315" x2="770" y2="134.73684210526315" stroke="#333355" stroke-width="1"/>
<text x="62" y="138.73684210526315" text-anchor="end" fill="#cdd6f4" font-size="11">#10</text>
<path d="M 70.0,187.4 L 420.0,155.8 L 770.0,113.7" fill="none" stroke="#3b82f6" stroke-width="2.5"/>
<circle cx="70.0" cy="187.4" r="3.5" fill="#3b82f6"/>
<circle cx="420.0" cy="155.8" r="3.5" fill="#3b82f6"/>
<circle cx="770.0" cy="113.7" r="3.5" fill="#3b82f6"/>
<text x="775.0" y="105.68421052631578" fill="#3b82f6" font-size="10">#8</text>
<path d="M 70.0,103.2 L 420.0,82.1 L 770.0,61.1" fill="none" stroke="#ef4444" stroke-width="2.5"/>
<circle cx="70.0" cy="103.2" r="3.5" fill="#ef4444"/>
<circle cx="420.0" cy="82.1" r="3.5" fill="#ef4444"/>
<circle cx="770.0" cy="61.1" r="3.5" fill="#ef4444"/>
<text x="775.0" y="53.05263157894737" fill="#ef4444" font-size="10">#3</text>
<text x="70.0" y="258" text-anchor="middle" fill="#cdd6f4" font-size="10">W07</text>
<text x="420.0" y="258" text-anchor="middle" fill="#cdd6f4" font-size="10">W08</text>
<text x="770.0" y="258" text-anchor="middle" fill="#cdd6f4" font-size="10">W09</text>
<rect x="70" y="280" width="12" height="12" rx="2" fill="#3b82f6"/>
<text x="86" y="290" fill="#cdd6f4" font-size="10">DramaBox</text>
<rect x="180" y="280" width="12" height="12" rx="2" fill="#ef4444"/>
<text x="196" y="290" fill="#cdd6f4" font-size="10">ReelShort</text>
</svg>