<svg xmlns="http://www.w3.org/2000/svg" viewBox="0 0 800 300">
<rect width="800" height="300" fill="#1e1e2e" rx="8"/>
<text x="400.0" y="24" text-anchor="middle" fill="#cdd6f4" font-size="14" font-weight="bold">出海短剧APP评论数趋势</text>
<line x1="70" y1="240.0" x2="770" y2="240.0" stroke="#333355" stroke-width="1"/>
<text x="62" y="244.0" text-anchor="end" fill="#cdd6f4" font-size="11">288K</text>
<line x1="70" y1="200.0" x2="770" y2="200.0" stroke="#333355" stroke-width="1"/>
<text x="62" y="204.0" text-anchor="end" fill="#cdd6f4" font-size="11">385K</text>
<line x1="70" y1="160.0" x2="770" y2="160.0" stroke="#333355" stroke-width="1"/>
<text x="62" y="164.0" text-anchor="end" fill="#cdd6f4" font-size="11">483K</text>
<line x1="70" y1="120.0" x2="770" y2="120.0" stroke="#333355" stroke-width="1"/>
<text x="62" y="124.0" text-anchor="end" fill="#cdd6f4" font-size="11">580K</text>
<line x1="70" y1="80.0" x2="770" y2="80.0" stroke="#333355" stroke-width="1"/>
<text x="62" y="84.0" text-anchor="end" fill="#cdd6f4" font-size="11">678K</text>
<line x1="70" y1="40.0" x2="770" y2="40.0" stroke="#333355" stroke-width="1"/>
<text x="62" y="44.0" text-anchor="end" fill="#cdd6f4" font-size="11">775K</text>
<text x="15" y="140.0" text-anchor="middle" fill="#cdd6f4" font-size="11" transform="rotate(-90, 15, 140.0)">评论数</text>
<path d="M 70.0,83.3 L 420.0,75.0 L 770.0,68.9" fill="none" stroke="#3b82f6" stroke-width="2.5"/>
<circle cx="70.0" cy="83.3" r="3.5" fill="#3b82f6"/>
<circle cx="420.0" cy="75.0" r="3.5" fill="#3b82f6"/>
<circle cx="770.0" cy="68.9" r="3.5" fill="#3b82f6"/>
<text x="775.0" y="60.92506469915051" fill="#3b82f6" font-size="10">705K</text>
<path d="M 70.0,226.9 L 420.0,218.7 L 770.0,212.9" fill="none" stroke="#ef4444" stroke-width="2.5"/>
<circle cx="70.0" cy="226.9" r="3.5" fill="#ef4444"/>
<circle cx="420.0" cy="218.7" r="3.5" fill="#ef4444"/>
<circle cx="770.0" cy="212.9" r="3.5" fill="#ef4444"/>
<text x="775.0" y="204.88318782264943" fill="#ef4444" font-size="10">354K</text>
<text x="70.0" y="258" text-anchor="middle" fill="#cdd6f4" font-size="10">W07</text>
<text x="420.0" y="258" text-anchor="middle" fill="#cdd6f4" font-size="10">W08</text>
<text x="770.0" y="258" text-anchor="middle" fill="#cdd6f4" font-size="10">W09</text>
<rect x="70" y="280" width="12" height="12" rx="2" fill="#3b82f6"/>
<text x="86" y="290" fill="#cdd6f4" font-size="10">DramaBox</text>
<rect x="180" y="280" width="12" height="12" rx="2" fill="#ef4444"/>
<text x="196" y="290" fill="#cdd6f4" font-size="10">ReelShort</text>
</svg>