<svg xmlns="http://www.w3.org/2000/svg" viewBox="0 0 800 300">
<rect width="800" height="300" fill="#1e1e2e" rx="8"/>
<text x="400.0" y="24" text-anchor="middle" fill="#cdd6f4" font-size="14" font-weight="bold">出海短剧APP免费榜排名走势</text>
<line x1="70" y1="40.0" x2="770" y2="40.0" stroke="#333355" stroke-width="1"/>
<text x="62" y="44.0" text-anchor="end" fill="#cdd6f4" font-size="11">#1</text>
<line x1="70" y1="79.13043478260869" x2="770" y2="79.13043478260869" stroke="#333355" stroke-width="1"/>
<text x="62" y="83.13043478260869" text-anchor="end" fill="#cdd6f4" font-size="11">#10</text>
<line x1="70" y1="144.3478260869565" x2="770" y2="144.3478260869565" stroke="#333355" stroke-width="1"/>
<text x="62" y="148.3478260869565" text-anchor="end" fill="#cdd6f4" font-size="11">#25</text>
<path d="M 70.0,100.9 L 303.3,87.8 L 536.7,70.4 L 770.0,205.2" fill="none" stroke="#3b82f6" stroke-width="2.5"/>
<circle cx="70.0" cy="100.9" r="3.5" fill="#3b82f6"/>
<circle cx="303.3" cy="87.8" r="3.5" fill="#3b82f6"/>
<circle cx="536.7" cy="70.4" r="3.5" fill="#3b82f6"/>
<circle cx="770.0" cy="205.2" r="3.5" fill="#3b82f6"/>
<text x="775.0" y="197.2173913043478" fill="#3b82f6" font-size="10">#39</text>
<path d="M 70.0,66.1 L 303.3,57.4 L 536.7,48.7 L 770.0,218.3" fill="none" stroke="#ef4444" stroke-width="2.5"/>
<circle cx="70.0" cy="66.1" r="3.5" fill="#ef4444"/>
<circle cx="303.3" cy="57.4" r="3.5" fill="#ef4444"/>
<circle cx="536.7" cy="48.7" r="3.5" fill="#ef4444"/>
<circle cx="770.0" cy="218.3" r="3.5" fill="#ef4444"/>
<text x="775.0" y="210.26086956521738" fill="#ef4444" font-size="10">#42</text>
<text x="70.0" y="258" text-anchor="middle" fill="#cdd6f4" font-size="10">W07</text>
<text x="303.3333333333333" y="258" text-anchor="middle" fill="#cdd6f4" font-size="10">W08</text>
<text x="536.6666666666666" y="258" text-anchor="middle" fill="#cdd6f4" font-size="10">W09</text>
<text x="770.0" y="258" text-anchor="middle" fill="#cdd6f4" font-size="10">W10</text>
<rect x="70" y="280" width="12" height="12" rx="2" fill="#3b82f6"/>
<text x="86" y="290" fill="#cdd6f4" font-size="10">DramaBox</text>
<rect x="180" y="280" width="12" height="12" rx="2" fill="#ef4444"/>
<text x="196" y="290" fill="#cdd6f4" font-size="10">ReelShort</text>
</svg>